<svg aria-hidden="true" style="position: absolute; width: 0; height: 0; overflow: hidden;" version="1.1" xmlns="http://www.w3.org/2000/svg" xmlns:xlink="http://www.w3.org/1999/xlink">
<defs>
<symbol id="icon-basket" viewBox="0 0 32 32">
<path d="M33.016 8.659l-4.668 10.353c-0.233 0.517-0.729 0.877-1.314 0.911l-0.004 0-13.402 0.894 0.772 2.216h14.607c1.715 0 3.106 1.391 3.106 3.106s-1.391 3.106-3.106 3.106c-1.715 0-3.105-1.389-3.106-3.104v-0h-14.494c-0.001 1.715-1.391 3.104-3.106 3.104s-3.106-1.391-3.106-3.106 1.391-3.106 3.106-3.106h2.805l-5.986-17.082h-3.558c-0.858 0-1.553-0.695-1.553-1.553s0.695-1.553 1.553-1.553v0h4.668c0.674 0.005 1.246 0.433 1.465 1.032l0.003 0.011 0.904 2.584h22.984c0.002 0 0.005-0 0.008-0 0.858 0 1.554 0.695 1.555 1.553v0c-0.005 0.23-0.053 0.447-0.136 0.646l0.004-0.012zM9.694 9.576l2.861 8.201 13.346-0.89 3.294-7.311h-19.501z"></path>
</symbol>
<symbol id="icon-icon-facebook" viewBox="0 0 15 32">
<path d="M15.354 0.013v5.274s-3.887-0.384-4.864 1.101c-0.532 0.819-0.216 3.2-0.264 4.915h5.157c-0.435 1.997-0.748 3.354-1.069 5.094h-4.116v16.384h-7.145v-16.32h-3.040v-5.158h3.007c0.154-3.776 0.211-7.514 2.085-9.408 2.107-2.138 4.119-1.882 10.249-1.882z"></path>
</symbol>
<symbol id="icon-icon-istagram" viewBox="0 0 32 32">
<path d="M28.655 32.781h-24.576c-2.262 0-4.096-1.834-4.096-4.096v0-24.576c0-2.262 1.834-4.096 4.096-4.096v0h24.576c2.262 0 4.096 1.834 4.096 4.096v0 24.576c0 2.262-1.834 4.096-4.096 4.096v0zM16.367 10.048c-0 0-0.001 0-0.001 0-2.539 0-4.73 1.492-5.742 3.648l-0.016 0.039c-0.008 0.024-0.017 0.046-0.029 0.065l0.001-0.001c-0.039 0.084-0.094 0.224-0.146 0.365l-0.018 0.057c-0.024 0.064-0.051 0.128-0.073 0.192-0.047 0.141-0.086 0.294-0.128 0.435-0.018 0.064-0.038 0.141-0.054 0.205-0.033 0.154-0.056 0.307-0.078 0.474-0.009 0.064-0.022 0.128-0.029 0.192-0.023 0.203-0.037 0.439-0.037 0.678v0.001c0 3.506 2.842 6.349 6.349 6.349s6.349-2.842 6.349-6.349v0c-0.001-0.24-0.014-0.476-0.040-0.708l0.003 0.029c-0.008-0.064-0.020-0.128-0.029-0.192-0.023-0.191-0.051-0.352-0.085-0.511l0.007 0.037c-0.026-0.111-0.045-0.179-0.064-0.247l0.011 0.043c-0.036-0.141-0.074-0.294-0.128-0.435-0.022-0.064-0.049-0.128-0.073-0.192-0.070-0.198-0.125-0.338-0.184-0.476l0.020 0.053c-0.011-0.018-0.020-0.040-0.028-0.062l-0.001-0.002c-1.029-2.193-3.217-3.685-5.755-3.686h-0zM29.065 5.338c0-0.001 0-0.002 0-0.003 0-0.903-0.732-1.636-1.636-1.636-0.001 0-0.002 0-0.003 0h-3.277c-0.001 0-0.002 0-0.003 0-0.903 0-1.636 0.732-1.636 1.636 0 0.001 0 0.002 0 0.003v-0 3.277c0 0.001 0 0.002 0 0.003 0 0.903 0.732 1.636 1.636 1.636 0.001 0 0.002 0 0.003 0h3.277c0.001 0 0.002 0 0.003 0 0.903 0 1.636-0.732 1.636-1.636 0-0.001 0-0.002 0-0.003v0-3.277zM29.065 13.734h-3.021c0.228 0.797 0.358 1.712 0.358 2.658 0 5.542-4.493 10.035-10.035 10.035s-10.035-4.493-10.035-10.035c0-0.946 0.131-1.861 0.375-2.729l-0.017 0.071h-3.021v13.722c0 0.001 0 0.002 0 0.003 0 0.903 0.732 1.636 1.636 1.636 0.001 0 0.002 0 0.003 0h22.118c0.001 0 0.002 0 0.003 0 0.903 0 1.636-0.732 1.636-1.636 0-0.001 0-0.002 0-0.003v0-13.722z"></path>
</symbol>
<symbol id="icon-icon-pinterest" viewBox="0 0 26 32">
<path d="M10.426 21.286c-0.268 1.075-0.538 2.189-0.817 3.277-0.274 1.247-0.59 2.304-0.974 3.329l0.055-0.168c-0.668 1.732-1.55 3.226-2.637 4.546l0.022-0.028c-0.736 0.845-0.58 0.512-0.801 0.461-0.169-0.038-0.183-0.205-0.216-0.435-0.056-0.625-0.088-1.352-0.088-2.086 0-0.771 0.035-1.533 0.104-2.286l-0.007 0.097c0.118-1.637 0.386-3.157 0.793-4.618l-0.039 0.163c0.62-2.637 1.211-5.222 1.837-7.885 0.065-0.166 0.106-0.359 0.115-0.559l0-0.004c-0.264-0.634-0.457-1.37-0.546-2.138l-0.004-0.038c-0.026-0.228-0.042-0.492-0.042-0.76 0-0.617 0.080-1.215 0.23-1.784l-0.011 0.049c0.274-1.357 1.184-2.454 2.398-2.985l0.027-0.010c0.269-0.094 0.579-0.148 0.902-0.148 0.483 0 0.937 0.121 1.334 0.334l-0.015-0.007c0.569 0.345 0.977 0.909 1.107 1.572l0.002 0.015c0.053 0.293 0.084 0.63 0.084 0.973 0 0.514-0.068 1.012-0.195 1.486l0.009-0.040c-0.342 1.562-0.791 2.739-1.199 4.237-0.186 0.484-0.293 1.043-0.293 1.628 0 0.243 0.019 0.482 0.054 0.715l-0.003-0.026c0.151 0.68 0.541 1.251 1.076 1.633l0.008 0.006c0.516 0.373 1.161 0.597 1.858 0.597 0.078 0 0.156-0.003 0.233-0.008l-0.010 0.001c1.418-0.13 2.635-0.89 3.383-1.994l0.010-0.016c1.197-1.681 1.975-3.737 2.142-5.964l0.002-0.040c0.070-0.54 0.11-1.165 0.11-1.8 0-0.272-0.007-0.542-0.022-0.811l0.002 0.037c-0.061-1.516-0.593-2.896-1.455-4.010l0.012 0.016c-0.823-1.009-1.915-1.77-3.168-2.175l-0.048-0.013c-0.907-0.281-1.95-0.442-3.031-0.442-0.624 0-1.235 0.054-1.829 0.157l0.063-0.009c-2.76 0.421-5.048 2.124-6.269 4.471l-0.022 0.047c-0.675 1.238-1.072 2.711-1.072 4.277 0 0.031 0 0.062 0 0.093l-0-0.005c-0.002 0.053-0.003 0.115-0.003 0.178 0 1.12 0.324 2.165 0.884 3.045l-0.014-0.023c0.17 0.256 0.42 0.474 0.586 0.768 0.041 0.16 0.065 0.343 0.065 0.531 0 0.347-0.080 0.675-0.223 0.966l0.006-0.013c-0.141 0.55-0.156 1.293-0.791 1.306-0.309-0.035-0.587-0.145-0.822-0.311l0.006 0.004c-1.676-1.028-2.841-2.749-3.097-4.755l-0.003-0.033c-0.121-0.622-0.19-1.336-0.19-2.067s0.069-1.446 0.201-2.138l-0.011 0.071c0.701-3.379 2.764-6.176 5.577-7.842l0.055-0.030c1.438-0.858 3.128-1.464 4.932-1.708l0.069-0.008c0.604-0.091 1.315-0.151 2.036-0.166l0.018-0c0.175-0.009 0.381-0.014 0.587-0.014 1.791 0 3.493 0.382 5.028 1.069l-0.078-0.031c1.498 0.672 2.767 1.601 3.806 2.743l0.008 0.009c1.069 1.167 1.88 2.589 2.33 4.163l0.018 0.073c0.299 0.87 0.484 1.874 0.512 2.918l0 0.013c-0.049 1.103-0.19 2.144-0.417 3.152l0.022-0.119c-0.431 3.42-2.256 6.345-4.877 8.232l-0.035 0.024c-1.357 0.886-3.018 1.414-4.802 1.414-0.112 0-0.223-0.002-0.334-0.006l0.016 0c-0.94-0.058-1.806-0.326-2.568-0.758l0.030 0.015c-0.707-0.374-1.281-0.918-1.678-1.581l-0.011-0.019z"></path>
</symbol>
<symbol id="icon-icon-twitter" viewBox="0 0 32 32">
<path d="M22.296 3.213c0.1-0.005 0.218-0.008 0.336-0.008 1.955 0 3.72 0.812 4.975 2.118l0.002 0.002c1.291-0.215 2.448-0.621 3.503-1.194l-0.058 0.029 0.836-0.461c-0.424 1.278-1.179 2.351-2.164 3.152l-0.012 0.010c-0.213 0.203-0.456 0.377-0.721 0.516l-0.018 0.008v0.013c1.408-0.151 2.696-0.513 3.884-1.056l-0.078 0.032v0.013c-0.636 1.008-1.392 1.869-2.262 2.597l-0.017 0.014c-0.349 0.282-0.7 0.563-1.050 0.832 0.010 0.233 0.016 0.506 0.016 0.781 0 1.254-0.119 2.479-0.346 3.667l0.019-0.121c-1.679 7.539-6.129 12.659-13.17 14.861-1.671 0.497-3.591 0.783-5.577 0.783-1.393 0-2.752-0.14-4.066-0.408l0.13 0.022c-1.535-0.37-2.853-0.814-4.117-1.356l0.166 0.063c-0.752-0.331-1.376-0.66-1.976-1.027l0.072 0.041c-0.197-0.115-0.393-0.243-0.59-0.358 0.449 0.060 0.967 0.095 1.494 0.095 0.23 0 0.459-0.007 0.685-0.020l-0.031 0.001c0.662-0.102 1.309-0.077 1.92-0.205 1.518-0.299 2.869-0.805 4.103-1.495l-0.070 0.036c0.697-0.329 1.296-0.726 1.83-1.198l-0.008 0.007c-0.719-0.002-1.406-0.133-2.041-0.372l0.040 0.013c-2.022-0.699-3.583-2.271-4.251-4.253l-0.014-0.048c0.36 0.069 0.774 0.109 1.197 0.109 0.642 0 1.264-0.091 1.851-0.261l-0.047 0.012c-0.836-0.115-1.582-0.429-2.211-0.893l0.013 0.009c-1.91-1.141-3.169-3.197-3.169-5.548 0-0.070 0.001-0.14 0.003-0.21l-0 0.010c0.23 0.102 0.46 0.218 0.689 0.32 0.404 0.17 0.878 0.308 1.369 0.391l0.039 0.005c0.181 0.065 0.391 0.103 0.609 0.103 0.11 0 0.217-0.010 0.322-0.028l-0.011 0.002h-0.033c-0.338-0.384-0.89-0.653-1.23-1.075-1.051-1.2-1.693-2.783-1.693-4.515 0-0.56 0.067-1.104 0.193-1.625l-0.010 0.047c0.185-0.668 0.431-1.25 0.742-1.791l-0.020 0.037c0.012 0 0.022 0.013 0.033 0.013 0.18 0.266 0.38 0.496 0.604 0.701l0.003 0.003c0.595 0.717 1.252 1.347 1.972 1.899l0.029 0.021c2.289 1.874 5.054 3.257 8.084 3.943l0.132 0.025c0.902 0.238 1.94 0.382 3.009 0.397l0.009 0c-0.118-0.456-0.186-0.98-0.186-1.519 0-0.584 0.080-1.15 0.229-1.687l-0.010 0.044c0.509-2.040 1.914-3.675 3.763-4.489l0.042-0.017c0.425-0.187 0.925-0.347 1.444-0.453l0.049-0.008c0.271-0.038 0.545-0.064 0.818-0.102z"></path>
</symbol>
<symbol id="icon-loupe" viewBox="0 0 32 32">
<path d="M32.245 27.849c0.53 0.557 0.856 1.312 0.856 2.143 0 1.718-1.393 3.112-3.112 3.112-0.834 0-1.591-0.328-2.15-0.862l0.001 0.001-9.092-9.103c-1.818 1.094-4.012 1.742-6.358 1.742-6.889 0-12.474-5.585-12.474-12.474s5.585-12.474 12.474-12.474c6.889 0 12.474 5.585 12.474 12.474 0 2.338-0.643 4.526-1.762 6.396l0.032-0.057 9.111 9.103zM12.442 3.127c-5.146 0-9.318 4.172-9.318 9.318s4.172 9.318 9.318 9.318c5.146 0 9.318-4.172 9.318-9.318v0c-0.003-5.145-4.173-9.314-9.317-9.318h-0z"></path>
</symbol>
</defs>
</svg>
