<svg aria-hidden="true" style="position:absolute;width:0;height:0" xmlns="http://www.w3.org/2000/svg" overflow="hidden"><defs><symbol id="icon-basket" viewBox="0 0 32 32"><path d="M33.016 8.659l-4.668 10.353a1.538 1.538 0 01-1.314.911h-.004l-13.402.894.772 2.216h14.607a3.107 3.107 0 11-3.106 3.108H11.407a3.105 3.105 0 11-3.106-3.108h2.805L5.12 5.951H1.562a1.553 1.553 0 110-3.106H6.23a1.572 1.572 0 011.465 1.032l.003.011.904 2.584h22.992c.858 0 1.554.695 1.555 1.553-.005.23-.053.447-.136.646l.004-.012zm-23.322.917l2.861 8.201 13.346-.89 3.294-7.311H9.694z"/></symbol><symbol id="icon-facebook" viewBox="0 0 15 32"><path d="M15.354.013v5.274s-3.887-.384-4.864 1.101c-.532.819-.216 3.2-.264 4.915h5.157c-.435 1.997-.748 3.354-1.069 5.094h-4.116v16.384H3.053v-16.32H.013v-5.158H3.02c.154-3.776.211-7.514 2.085-9.408C7.212-.243 9.224.013 15.354.013z"/></symbol><symbol id="icon-istagram" viewBox="0 0 32 32"><path d="M28.655 32.781H4.079a4.096 4.096 0 01-4.096-4.096V4.109A4.096 4.096 0 014.079.013h24.576a4.096 4.096 0 014.096 4.096v24.576a4.096 4.096 0 01-4.096 4.096zM16.367 10.048h-.001a6.34 6.34 0 00-5.742 3.648l-.016.039a.298.298 0 01-.029.065l.001-.001a5.594 5.594 0 00-.146.365l-.018.057c-.024.064-.051.128-.073.192-.047.141-.086.294-.128.435a7.746 7.746 0 00-.054.205 5.934 5.934 0 00-.078.474c-.009.064-.022.128-.029.192a6.16 6.16 0 00-.037.678v.001a6.349 6.349 0 1012.698 0 6.6 6.6 0 00-.04-.708l.003.029c-.008-.064-.02-.128-.029-.192a5.548 5.548 0 00-.085-.511l.007.037c-.026-.111-.045-.179-.064-.247l.011.043c-.036-.141-.074-.294-.128-.435-.022-.064-.049-.128-.073-.192a7.576 7.576 0 00-.184-.476l.02.053a.353.353 0 01-.028-.062l-.001-.002c-1.029-2.193-3.217-3.685-5.755-3.686zm12.698-4.71v-.003c0-.903-.732-1.636-1.636-1.636h-3.283c-.903 0-1.636.732-1.636 1.636v3.283c0 .903.732 1.636 1.636 1.636h3.283c.903 0 1.636-.732 1.636-1.636v-3.28zm0 8.396h-3.021c.228.797.358 1.712.358 2.658 0 5.542-4.493 10.035-10.035 10.035S6.332 21.934 6.332 16.392c0-.946.131-1.861.375-2.729l-.017.071H3.669v13.725c0 .903.732 1.636 1.636 1.636h22.124c.903 0 1.636-.732 1.636-1.636V13.734z"/></symbol><symbol id="icon-pinterest" viewBox="0 0 26 32"><path d="M10.426 21.286c-.268 1.075-.538 2.189-.817 3.277a23.878 23.878 0 01-.974 3.329l.055-.168a16.275 16.275 0 01-2.637 4.546l.022-.028c-.736.845-.58.512-.801.461-.169-.038-.183-.205-.216-.435a25.04 25.04 0 01.016-4.372l-.007.097a23.31 23.31 0 01.793-4.618l-.039.163c.62-2.637 1.211-5.222 1.837-7.885a1.77 1.77 0 00.115-.559v-.004a8.038 8.038 0 01-.546-2.138l-.004-.038a6.99 6.99 0 01.188-2.544l-.011.049a4.143 4.143 0 012.398-2.985l.027-.01a2.76 2.76 0 01.902-.148c.483 0 .937.121 1.334.334l-.015-.007c.569.345.977.909 1.107 1.572l.002.015a5.734 5.734 0 01-.111 2.459l.009-.04c-.342 1.562-.791 2.739-1.199 4.237a4.572 4.572 0 00-.293 1.628c0 .243.019.482.054.715l-.003-.026c.151.68.541 1.251 1.076 1.633l.008.006a3.168 3.168 0 002.091.589l-.01.001a4.579 4.579 0 003.383-1.994l.01-.016a11.812 11.812 0 002.142-5.964l.002-.04c.07-.54.11-1.165.11-1.8 0-.272-.007-.542-.022-.811l.002.037a6.98 6.98 0 00-1.455-4.01l.012.016a6.779 6.779 0 00-3.168-2.175l-.048-.013a10.362 10.362 0 00-3.031-.442c-.624 0-1.235.054-1.829.157l.063-.009a8.489 8.489 0 00-6.269 4.471l-.022.047a8.955 8.955 0 00-1.072 4.277v.093-.005a5.654 5.654 0 00.881 3.223l-.014-.023c.17.256.42.474.586.768a2.184 2.184 0 01-.158 1.497l.006-.013c-.141.55-.156 1.293-.791 1.306a1.759 1.759 0 01-.822-.311l.006.004C1.603 17.634.438 15.913.182 13.907l-.003-.033A11.405 11.405 0 01.19 9.669l-.011.071a11.88 11.88 0 015.577-7.842l.055-.03A13.099 13.099 0 0110.743.16l.069-.008a16.304 16.304 0 012.036-.166h.018a12.278 12.278 0 015.615 1.055l-.078-.031a11.412 11.412 0 013.806 2.743l.008.009a10.405 10.405 0 012.33 4.163l.018.073c.299.87.484 1.874.512 2.918v.013a17.867 17.867 0 01-.417 3.152l.022-.119a11.946 11.946 0 01-4.877 8.232l-.035.024a8.784 8.784 0 01-5.136 1.408h.016a5.916 5.916 0 01-2.568-.758l.03.015a4.268 4.268 0 01-1.678-1.581l-.011-.019z"/></symbol><symbol id="icon-twitter" viewBox="0 0 32 32"><path d="M22.296 3.213a6.878 6.878 0 015.311 2.11l.002.002a11.074 11.074 0 003.503-1.194l-.058.029.836-.461a6.788 6.788 0 01-2.164 3.152l-.012.01a3.199 3.199 0 01-.721.516l-.018.008v.013a12.463 12.463 0 003.884-1.056l-.078.032v.013a11.038 11.038 0 01-2.262 2.597l-.017.014c-.349.282-.7.563-1.05.832a19.518 19.518 0 01-.33 4.448l.019-.121c-1.679 7.539-6.129 12.659-13.17 14.861-1.671.497-3.591.783-5.577.783-1.393 0-2.752-.14-4.066-.408l.13.022a25.254 25.254 0 01-4.117-1.356l.166.063a16.194 16.194 0 01-1.976-1.027l.072.041c-.197-.115-.393-.243-.59-.358a11.52 11.52 0 002.179.075l-.031.001c.662-.102 1.309-.077 1.92-.205a13.762 13.762 0 004.103-1.495l-.07.036a7.67 7.67 0 001.83-1.198l-.008.007a5.825 5.825 0 01-2.041-.372l.04.013a6.813 6.813 0 01-4.251-4.253l-.014-.048a6.65 6.65 0 003.048-.152l-.047.012a4.799 4.799 0 01-2.211-.893l.013.009c-1.91-1.141-3.169-3.197-3.169-5.548l.003-.21v.01c.23.102.46.218.689.32.404.17.878.308 1.369.391l.039.005a1.821 1.821 0 00.931.075l-.011.002h-.033c-.338-.384-.89-.653-1.23-1.075A6.836 6.836 0 011.368 7.77c0-.56.067-1.104.193-1.625l-.01.047c.185-.668.431-1.25.742-1.791l-.02.037c.012 0 .022.013.033.013.18.266.38.496.604.701l.003.003a12.192 12.192 0 001.972 1.899l.029.021a19.622 19.622 0 008.084 3.943l.132.025c.902.238 1.94.382 3.009.397h.009a6.303 6.303 0 01.043-3.206l-.01.044a6.643 6.643 0 013.763-4.489l.042-.017a7.254 7.254 0 011.444-.453l.049-.008c.271-.038.545-.064.818-.102z"/></symbol><symbol id="icon-loupe" viewBox="0 0 32 32"><path d="M32.245 27.849a3.112 3.112 0 01-4.406 4.393l.001.001-9.092-9.103a12.343 12.343 0 01-6.358 1.742c-6.889 0-12.474-5.585-12.474-12.474S5.501-.066 12.39-.066s12.474 5.585 12.474 12.474c0 2.338-.643 4.526-1.762 6.396l.032-.057 9.111 9.103zM12.442 3.127a9.318 9.318 0 109.318 9.318 9.324 9.324 0 00-9.317-9.318z"/></symbol></defs></svg>